:FULLY-SPECIFIED
:FORCE-ALL-JOINTS-BE-3DOF
:DEGREES
136
root 7.69008 16.6804 -26.3289 -7.84191 13.0465 1.9812
lfemur -8.74544 14.1841 -18.4272
ltibia 33.4458 -0 0
lfoot -16.2018 -6.04529 -0.0763718
ltoes 19.4648 -0 0
rfemur -81.403 -27.084 34.2315
rtibia 78.0028 -0 0
rfoot 9.37695 22.0421 0.0168418
rtoes -30.1229 0 0
lowerback 14.5855 -3.26856 -6.14045
upperback 4.5463 -5.17337 -0.315772
thorax -2.77278 -2.57624 3.92774
lowerneck -12.0348 -1.9897 -0.0542326
upperneck 0.738525 -2.77004 2.94069
head 2.38218 -1.27607 0.802911
lclavicle 9.13416e-14 2.38542e-15 0
lhumerus -38.5563 -22.7601 92.8424
lradius 48.9048 -0 0
lwrist 11.3989 0 0
lhand 14.137 8.62168 0.219727
lfingers 7.12502 -0 0
lthumb 38.9807 33.6652 0.0394935
rclavicle 9.13416e-14 2.38542e-15 0
rhumerus -46.7874 -13.4019 -61.4896
rradius 77.7063 -0 0
rwrist -7.99777 0 0
rhand -11.0907 -31.5599 3.45677
rfingers 7.12502 -0 0
rthumb 14.8509 -59.434 3.64094
137
root 7.65409 16.6594 -26.3179 -7.60439 13.6145 1.99822
lfemur -9.25253 14.6764 -18.357
ltibia 33.8824 -0 0
lfoot -16.3785 -5.58633 -0.0777871
ltoes 18.1491 -0 0
rfemur -81.8427 -27.404 34.342
rtibia 81.3148 -0 0
rfoot 10.4177 22.0593 0.0171546
rtoes -29.8024 0 0
lowerback 14.5103 -3.44529 -6.28812
upperback 4.48533 -5.42779 -0.416564
thorax -2.76409 -2.70068 3.93712
lowerneck -12.0036 -2.05511 -0.161946
upperneck 0.670681 -2.84729 3.10795
head 2.36066 -1.3104 0.871901
lclavicle 9.13416e-14 2.38542e-15 0
lhumerus -38.2808 -23.5614 92.9258
lradius 48.6907 -0 0
lwrist 11.185 0 0
lhand 14.9366 8.91383 0.223804
lfingers 7.12502 -0 0
lthumb 39.7315 33.7211 0.040226
rclavicle 9.13416e-14 2.38542e-15 0
rhumerus -47.4403 -13.8697 -62.2337
rradius 78.8609 -0 0
rwrist -7.85381 0 0
rhand -13.4556 -33.148 3.52226
rfingers 7.12502 -0 0
rthumb 12.5699 -61.1691 3.70993
138
root 7.6181 16.6385 -26.307 -7.36611 14.1824 2.01772
lfemur -9.76015 15.1693 -18.2911
ltibia 34.319 -0 0
lfoot -16.5552 -5.12737 -0.0777871
ltoes 16.8333 -0 0
rfemur -82.2844 -27.7232 34.4556
rtibia 84.6268 -0 0
rfoot 11.4584 22.0766 0.0171546
rtoes -29.482 0 0
lowerback 14.4355 -3.62221 -6.43559
upperback 4.42478 -5.68231 -0.517127
thorax -2.75543 -2.82511 3.94648
lowerneck -11.9722 -2.12046 -0.269699
upperneck 0.602606 -2.92433 3.27531
head 2.33909 -1.34471 0.940904
lclavicle 9.13416e-14 2.38542e-15 0
lhumerus -38.005 -24.3631 93.0055
lradius 48.4765 -0 0
lwrist 10.9711 0 0
lhand 15.7361 9.20602 0.223804
lfingers 7.12502 -0 0
lthumb 40.4824 33.7769 0.040226
rclavicle 9.13416e-14 2.38542e-15 0
rhumerus -48.0883 -14.3457 -62.9737
rradius 80.0154 -0 0
rwrist -7.70985 0 0
rhand -15.8216 -34.7375 3.52226
rfingers 7.12502 -0 0
rthumb 10.2879 -62.9056 3.70993
139
root 7.58211 16.6175 -26.296 -7.12703 14.7502 2.03971
lfemur -10.2684 15.6627 -18.2297
ltibia 34.7556 -0 0
lfoot -16.7319 -4.66841 -0.0763718
ltoes 15.5176 -0 0
rfemur -82.7281 -28.0416 34.5724
rtibia 87.9388 -0 0
rfoot 12.4992 22.0938 0.0168418
rtoes -29.1615 0 0
lowerback 14.3612 -3.79932 -6.58286
upperback 4.36465 -5.93694 -0.617465
thorax -2.74678 -2.94955 3.95582
lowerneck -11.9408 -2.18575 -0.377492
upperneck 0.534302 -3.00118 3.44278
head 2.31748 -1.37898 1.00992
lclavicle 9.13416e-14 2.38542e-15 0
lhumerus -37.7286 -25.1652 93.0815
lradius 48.2624 -0 0
lwrist 10.7572 0 0
lhand 16.5357 9.49817 0.219727
lfingers 7.12502 -0 0
lthumb 41.2332 33.8328 0.0394935
rclavicle 9.13416e-14 2.38542e-15 0
rhumerus -48.7312 -14.8297 -63.7097
rradius 81.17 -0 0
rwrist -7.56589 0 0
rhand -18.1865 -36.3256 3.45677
rfingers 7.12502 -0 0
rthumb 8.0069 -64.6407 3.64094
140
root 7.54612 16.5966 -26.285 -6.88708 15.3179 2.06421
lfemur -10.7773 16.1567 -18.1726
ltibia 35.1921 -0 0
lfoot -16.9085 -4.20946 -0.0735414
ltoes 14.2019 -0 0
rfemur -83.1739 -28.3592 34.6923
rtibia 91.2508 -0 0
rfoot 13.5399 22.111 0.0162162
rtoes -28.8411 0 0
lowerback 14.2873 -3.97663 -6.72993
upperback 4.30495 -6.19168 -0.717582
thorax -2.73816 -3.07398 3.96514
lowerneck -11.9092 -2.25099 -0.485326
upperneck 0.465769 -3.07782 3.61035
head 2.29583 -1.41324 1.07895
lclavicle 9.13416e-14 2.38542e-15 0
lhumerus -37.4515 -25.9675 93.1536
lradius 48.0483 -0 0
lwrist 10.5433 0 0
lhand 17.3352 9.79024 0.211573
lfingers 7.12502 -0 0
lthumb 41.984 33.8887 0.0380286
rclavicle 9.13416e-14 2.38542e-15 0
rhumerus -49.3691 -15.3216 -64.4418
rradius 82.3246 -0 0
rwrist -7.42192 0 0
rhand -20.5485 -37.9095 3.32597
rfingers 7.12502 -0 0
rthumb 5.72934 -66.3715 3.50314
141
root 7.51013 16.5756 -26.2741 -6.64622 15.8855 2.09126
lfemur -11.287 16.6511 -18.12
ltibia 35.6287 -0 0
lfoot -17.0851 -3.75052 -0.0692961
ltoes 12.8861 -0 0
rfemur -83.6217 -28.6759 34.8153
rtibia 94.5629 -0 0
rfoot 14.5807 22.1282 0.0152781
rtoes -28.5206 0 0
lowerback 14.2138 -4.15412 -6.8768
upperback 4.24566 -6.44651 -0.817481
thorax -2.72955 -3.19842 3.97444
lowerneck -11.8775 -2.31616 -0.593201
upperneck 0.397006 -3.15427 3.77802
head 2.27414 -1.44746 1.148
lclavicle 9.13416e-14 2.38542e-15 0
lhumerus -37.1736 -26.7702 93.222
lradius 47.8342 -0 0
lwrist 10.3294 0 0
lhand 18.1347 10.0822 0.199345
lfingers 7.12502 -0 0
lthumb 42.7349 33.9446 0.0358315
rclavicle 9.13416e-14 2.38542e-15 0
rhumerus -50.0019 -15.8213 -65.1699
rradius 83.4791 -0 0
rwrist -7.27796 0 0
rhand -22.9056 -39.4863 3.13019
rfingers 7.12502 -0 0
rthumb 3.4574 -68.0951 3.29687
142
root 7.47414 16.5546 -26.2631 -6.40438 16.453 2.12086
lfemur -11.7976 17.1459 -18.0718
ltibia 36.0653 -0 0
lfoot -17.2617 -3.2916 -0.0636361
ltoes 11.5704 -0 0
rfemur -84.0718 -28.9919 34.9416
rtibia 97.8749 -0 0
rfoot 15.6214 22.1454 0.0140279
rtoes -28.2001 0 0
lowerback 14.1408 -4.33179 -7.02348
upperback 4.18679 -6.70146 -0.917166
thorax -2.72096 -3.32286 3.98373
lowerneck -11.8456 -2.38128 -0.701117
upperneck 0.328014 -3.23051 3.94579
head 2.2524 -1.48166 1.21706
lclavicle 9.13416e-14 2.38542e-15 0
lhumerus -36.8947 -27.5731 93.2864
lradius 47.6201 -0 0
lwrist 10.1155 0 0
lhand 18.9341 10.3739 0.183045
lfingers 7.12502 -0 0
lthumb 43.4857 34.0004 0.0329027
rclavicle 9.13416e-14 2.38542e-15 0
rhumerus -50.6297 -16.3288 -65.894
rradius 84.6337 -0 0
rwrist -7.134 0 0
rhand -25.2559 -41.0535 2.8699
rfingers 7.12502 -0 0
rthumb 1.19321 -69.8088 3.02267
143
root 7.43814 16.5337 -26.2521 -6.16152 17.0204 2.15307
lfemur -12.3091 17.6411 -18.0281
ltibia 36.5018 -0 0
lfoot -17.4383 -2.83269 -0.056562
ltoes 10.2546 -0 0
rfemur -84.524 -29.3069 35.0711
rtibia 101.187 -0 0
rfoot 16.6622 22.1625 0.0124658
rtoes -27.8797 0 0
lowerback 14.0683 -4.50966 -7.16996
upperback 4.12833 -6.9565 -1.01664
thorax -2.7124 -3.4473 3.993
lowerneck -11.8137 -2.44633 -0.809074
upperneck 0.258794 -3.30655 4.11368
head 2.23063 -1.51583 1.28613
lclavicle 9.13416e-14 2.38542e-15 0
lhumerus -36.6149 -28.3763 93.3468
lradius 47.406 -0 0
lwrist 9.90156 0 0
lhand 19.7334 10.6654 0.162677
lfingers 7.12502 -0 0
lthumb 44.2365 34.0562 0.0292426
rclavicle 9.13416e-14 2.38542e-15 0
rhumerus -51.2525 -16.8438 -66.6142
rradius 85.7883 -0 0
rwrist -6.99003 0 0
rhand -27.5976 -42.6083 2.54577
rfingers 7.12502 -0 0
rthumb -1.06114 -71.5098 2.68123
144
root 7.40215 16.5127 -26.2412 -5.91757 17.5876 2.18789
lfemur -12.8217 18.1367 -17.989
ltibia 36.9384 -0 0
lfoot -17.6147 -2.37381 -0.0480741
ltoes 8.93889 -0 0
rfemur -84.9784 -29.621 35.2039
rtibia 104.499 -0 0
rfoot 17.7029 22.1796 0.0105924
rtoes -27.5592 0 0
lowerback 13.9961 -4.68771 -7.31626
upperback 4.07029 -7.21164 -1.11591
thorax -2.70385 -3.57175 4.00225
lowerneck -11.7816 -2.51133 -0.917073
upperneck 0.189346 -3.38239 4.28166
head 2.20881 -1.54998 1.35522
lclavicle 9.13416e-14 2.38542e-15 0
lhumerus -36.3338 -29.1798 93.4033
lradius 47.1919 -0 0
lwrist 9.68765 0 0
lhand 20.5326 10.9565 0.138245
lfingers 7.12502 -0 0
lthumb 44.9874 34.1119 0.024852
rclavicle 9.13416e-14 2.38542e-15 0
rhumerus -51.8701 -17.3662 -67.3305
rradius 86.9428 -0 0
rwrist -6.84607 0 0
rhand -29.9291 -44.1481 2.15859
rfingers 7.12502 -0 0
rthumb -3.30373 -73.1957 2.27339
